<?xml version="1.0" encoding="utf-8"?>
<!-- Generator: Adobe Illustrator 22.1.0, SVG Export Plug-In . SVG Version: 6.00 Build 0)  -->
<svg version="1.1" id="Capa_1" xmlns="http://www.w3.org/2000/svg" xmlns:xlink="http://www.w3.org/1999/xlink" x="0px" y="0px"
	 viewBox="0 0 512 512" style="enable-background:new 0 0 512 512;" xml:space="preserve">
<g>
	<g>
		<g>
			<path d="M352,112h-40V96h16c4.4,0,8-3.6,8-8v-8h0.3c-0.1-5.5-1.1-10.9-0.3-16.3V56c0-4.4-3.6-8-8-8h-16V24c0-13.3-10.7-24-24-24
				H112C98.7,0,88,10.7,88,24v24H72c-4.4,0-8,3.6-8,8v6.9c0.2,0.8,0.3,1.6,0.3,2.5c0,5.7-0.3,11.3-0.3,17V88c0,4.4,3.6,8,8,8h16v16
				H48c-4.4,0-8,3.6-8,8v288c0,2.1,0.8,4.2,2.3,5.7l48,48c1.5,1.5,3.5,2.3,5.7,2.3h256c4.4,0,8-3.6,8-8V120
				C360,115.6,356.4,112,352,112z M104,24c0-4.4,3.6-8,8-8h176c4.4,0,8,3.6,8,8v24H104V24z M80,80V64h240v16H80z M296,96v16H104V96
				H296z M88,436.7L67.3,416H88V436.7z M344,448H104v-40c0-4.4-3.6-8-8-8H56V128h288V448z"/>
			<path d="M96,208h32c4.4,0,8-3.6,8-8v-32c0-4.4-3.6-8-8-8H96c-4.4,0-8,3.6-8,8v32C88,204.4,91.6,208,96,208z M104,176h16v16h-16
				V176z"/>
			<path d="M96,288h32c4.4,0,8-3.6,8-8v-32c0-4.4-3.6-8-8-8H96c-4.4,0-8,3.6-8,8v32C88,284.4,91.6,288,96,288z M104,256h16v16h-16
				V256z"/>
			<path d="M136,360v-32c0-4.4-3.6-8-8-8H96c-4.4,0-8,3.6-8,8v32c0,4.4,3.6,8,8,8h32C132.4,368,136,364.4,136,360z M120,352h-16v-16
				h16V352z"/>
			<rect x="168" y="160" width="128" height="16"/>
			<rect x="168" y="192" width="80" height="16"/>
			<rect x="264" y="192" width="16" height="16"/>
			<rect x="168" y="240" width="128" height="16"/>
			<rect x="168" y="272" width="80" height="16"/>
			<rect x="264" y="272" width="16" height="16"/>
			<rect x="168" y="320" width="128" height="16"/>
			<rect x="168" y="352" width="80" height="16"/>
			<rect x="264" y="352" width="16" height="16"/>
			<rect x="168" y="400" width="144" height="16"/>
		</g>
	</g>
</g>
</svg>
