<?xml version="1.0" encoding="UTF-8" standalone="no"?>
<!-- Created with Inkscape (http://www.inkscape.org/) -->
<svg
   xmlns:dc="http://purl.org/dc/elements/1.1/"
   xmlns:cc="http://web.resource.org/cc/"
   xmlns:rdf="http://www.w3.org/1999/02/22-rdf-syntax-ns#"
   xmlns:svg="http://www.w3.org/2000/svg"
   xmlns="http://www.w3.org/2000/svg"
   xmlns:sodipodi="http://sodipodi.sourceforge.net/DTD/sodipodi-0.dtd"
   xmlns:inkscape="http://www.inkscape.org/namespaces/inkscape"
   id="svg2273"
   sodipodi:version="0.32"
   inkscape:version="0.45.1"
   width="500"
   height="500"
   version="1.0"
   sodipodi:docbase="C:\Documents and Settings\Emilio\Escritorio"
   sodipodi:docname="Codigo QR.svg"
   inkscape:output_extension="org.inkscape.output.svg.inkscape">
  <metadata
     id="metadata2278">
    <rdf:RDF>
      <cc:Work
         rdf:about="">
        <dc:format>image/svg+xml</dc:format>
        <dc:type
           rdf:resource="http://purl.org/dc/dcmitype/StillImage" />
      </cc:Work>
    </rdf:RDF>
  </metadata>
  <defs
     id="defs2276" />
  <sodipodi:namedview
     inkscape:window-height="740"
     inkscape:window-width="1280"
     inkscape:pageshadow="2"
     inkscape:pageopacity="0.0"
     guidetolerance="10.0"
     gridtolerance="10.0"
     objecttolerance="10.0"
     borderopacity="1.0"
     bordercolor="#666666"
     pagecolor="#ffffff"
     id="base"
     inkscape:zoom="1.088"
     inkscape:cx="250"
     inkscape:cy="250"
     inkscape:window-x="-4"
     inkscape:window-y="-4"
     inkscape:current-layer="svg2273" />
  <path
     style="fill:#000000;fill-opacity:1"
     d="M 113.1313,434.02122 L 67.631298,434.02122 L 67.631298,388.52122 L 67.631298,343.02122 L 113.1313,343.02122 L 158.6313,343.02122 L 158.6313,388.52122 L 158.6313,434.02122 L 113.1313,434.02122 z M 113.1313,421.02122 L 145.6313,421.02122 L 145.6313,388.52122 L 145.6313,356.02122 L 113.1313,356.02122 L 80.631298,356.02122 L 80.631298,388.52122 L 80.631298,421.02122 L 113.1313,421.02122 z M 113.1313,408.02122 L 93.631298,408.02122 L 93.631298,388.52122 L 93.631298,369.02122 L 113.1313,369.02122 L 132.6313,369.02122 L 132.6313,388.52122 L 132.6313,408.02122 L 113.1313,408.02122 z M 178.1313,434.02122 L 171.6313,434.02122 L 171.6313,401.52122 L 171.6313,369.02122 L 178.1313,369.02122 L 184.6313,369.02122 L 184.6313,382.02122 L 184.6313,395.02122 L 191.1313,395.02122 L 197.6313,395.02122 L 197.6313,401.52122 L 197.6313,408.02122 L 191.1313,408.02122 L 184.6313,408.02122 L 184.6313,421.02122 L 184.6313,434.02122 L 178.1313,434.02122 z M 210.6313,434.02122 L 197.6313,434.02122 L 197.6313,427.52122 L 197.6313,421.02122 L 204.1313,421.02122 L 210.6313,421.02122 L 210.6313,408.02122 L 210.6313,395.02122 L 223.6313,395.02122 L 236.6313,395.02122 L 236.6313,401.52122 L 236.6313,408.02122 L 230.1313,408.02122 L 223.6313,408.02122 L 223.6313,421.02122 L 223.6313,434.02122 L 210.6313,434.02122 z M 295.1313,434.02122 L 288.6313,434.02122 L 288.6313,427.52122 L 288.6313,421.02122 L 282.1313,421.02122 L 275.6313,421.02122 L 275.6313,414.52122 L 275.6313,408.02122 L 269.1313,408.02122 L 262.6313,408.02122 L 262.6313,414.52122 L 262.6313,421.02122 L 256.1313,421.02122 L 249.6313,421.02122 L 249.6313,414.52122 L 249.6313,408.02122 L 256.1313,408.02122 L 262.6313,408.02122 L 262.6313,401.52122 L 262.6313,395.02122 L 269.1313,395.02122 L 275.6313,395.02122 L 275.6313,388.52122 L 275.6313,382.02122 L 262.6313,382.02122 L 249.6313,382.02122 L 249.6313,375.52122 L 249.6313,369.02122 L 243.1313,369.02122 L 236.6313,369.02122 L 236.6313,375.52122 L 236.6313,382.02122 L 230.1313,382.02122 L 223.6313,382.02122 L 223.6313,369.02122 L 223.6313,356.02122 L 230.1313,356.02122 L 236.6313,356.02122 L 236.6313,349.52122 L 236.6313,343.02122 L 230.1313,343.02122 L 223.6313,343.02122 L 223.6313,336.52122 L 223.6313,330.02122 L 210.6313,330.02122 L 197.6313,330.02122 L 197.6313,343.02122 L 197.6313,356.02122 L 204.1313,356.02122 L 210.6313,356.02122 L 210.6313,362.52122 L 210.6313,369.02122 L 204.1313,369.02122 L 197.6313,369.02122 L 197.6313,362.52122 L 197.6313,356.02122 L 184.6313,356.02122 L 171.6313,356.02122 L 171.6313,343.02122 L 171.6313,330.02122 L 184.6313,330.02122 L 197.6313,330.02122 L 197.6313,323.52122 L 197.6313,317.02122 L 178.1313,317.02122 L 158.6313,317.02122 L 158.6313,323.52122 L 158.6313,330.02122 L 152.1313,330.02122 L 145.6313,330.02122 L 145.6313,323.52122 L 145.6313,317.02122 L 152.1313,317.02122 L 158.6313,317.02122 L 158.6313,310.52122 L 158.6313,304.02122 L 152.1313,304.02122 L 145.6313,304.02122 L 145.6313,297.52122 L 145.6313,291.02122 L 152.1313,291.02122 L 158.6313,291.02122 L 158.6313,284.52122 L 158.6313,278.02122 L 139.1313,278.02122 L 119.6313,278.02122 L 119.6313,284.52122 L 119.6313,291.02122 L 113.1313,291.02122 L 106.6313,291.02122 L 106.6313,297.52122 L 106.6313,304.02122 L 100.1313,304.02122 L 93.631298,304.02122 L 93.631298,291.02122 L 93.631298,278.02122 L 87.131298,278.02122 L 80.631298,278.02122 L 80.631298,304.02122 L 80.631298,330.02122 L 74.131298,330.02122 L 67.631298,330.02122 L 67.631298,304.02122 L 67.631298,278.02122 L 74.131298,278.02122 L 80.631298,278.02122 L 80.631298,271.52122 L 80.631298,265.02122 L 74.131298,265.02122 L 67.631298,265.02122 L 67.631298,232.52122 L 67.631298,200.02122 L 80.631298,200.02122 L 93.631298,200.02122 L 93.631298,193.52122 L 93.631298,187.02122 L 80.631298,187.02122 L 67.631298,187.02122 L 67.631298,174.02122 L 67.631298,161.02122 L 100.1313,161.02122 L 132.6313,161.02122 L 132.6313,167.52122 L 132.6313,174.02122 L 139.1313,174.02122 L 145.6313,174.02122 L 145.6313,167.52122 L 145.6313,161.02122 L 178.1313,161.02122 L 210.6313,161.02122 L 210.6313,167.52122 L 210.6313,174.02122 L 204.1313,174.02122 L 197.6313,174.02122 L 197.6313,187.02122 L 197.6313,200.02122 L 204.1313,200.02122 L 210.6313,200.02122 L 210.6313,193.52122 L 210.6313,187.02122 L 223.6313,187.02122 L 236.6313,187.02122 L 236.6313,193.52122 L 236.6313,200.02122 L 230.1313,200.02122 L 223.6313,200.02122 L 223.6313,213.02122 L 223.6313,226.02122 L 249.6313,226.02122 L 275.6313,226.02122 L 275.6313,232.52122 L 275.6313,239.02122 L 295.1313,239.02122 L 314.6313,239.02122 L 314.6313,232.52122 L 314.6313,226.02122 L 321.1313,226.02122 L 327.6313,226.02122 L 327.6313,219.52122 L 327.6313,213.02122 L 321.1313,213.02122 L 314.6313,213.02122 L 314.6313,206.52122 L 314.6313,200.02122 L 321.1313,200.02122 L 327.6313,200.02122 L 327.6313,193.52122 L 327.6313,187.02122 L 314.6313,187.02122 L 301.6313,187.02122 L 301.6313,180.52122 L 301.6313,174.02122 L 295.1313,174.02122 L 288.6313,174.02122 L 288.6313,180.52122 L 288.6313,187.02122 L 275.6313,187.02122 L 262.6313,187.02122 L 262.6313,180.52122 L 262.6313,174.02122 L 256.1313,174.02122 L 249.6313,174.02122 L 249.6313,167.52122 L 249.6313,161.02122 L 243.1313,161.02122 L 236.6313,161.02122 L 236.6313,167.52122 L 236.6313,174.02122 L 230.1313,174.02122 L 223.6313,174.02122 L 223.6313,154.52122 L 223.6313,135.02122 L 230.1313,135.02122 L 236.6313,135.02122 L 236.6313,128.52122 L 236.6313,122.02122 L 230.1313,122.02122 L 223.6313,122.02122 L 223.6313,115.52122 L 223.6313,109.02122 L 217.1313,109.02122 L 210.6313,109.02122 L 210.6313,128.52122 L 210.6313,148.02122 L 204.1313,148.02122 L 197.6313,148.02122 L 197.6313,128.52122 L 197.6313,109.02122 L 184.6313,109.02122 L 171.6313,109.02122 L 171.6313,102.52122 L 171.6313,96.02122 L 178.1313,96.02122 L 184.6313,96.02122 L 184.6313,89.52122 L 184.6313,83.02122 L 178.1313,83.02122 L 171.6313,83.02122 L 171.6313,76.52122 L 171.6313,70.02122 L 178.1313,70.02122 L 184.6313,70.02122 L 184.6313,63.52122 L 184.6313,57.02122 L 191.1313,57.02122 L 197.6313,57.02122 L 197.6313,70.02122 L 197.6313,83.02122 L 204.1313,83.02122 L 210.6313,83.02122 L 210.6313,76.52122 L 210.6313,70.02122 L 223.6313,70.02122 L 236.6313,70.02122 L 236.6313,76.52122 L 236.6313,83.02122 L 230.1313,83.02122 L 223.6313,83.02122 L 223.6313,96.02122 L 223.6313,109.02122 L 249.6313,109.02122 L 275.6313,109.02122 L 275.6313,96.02122 L 275.6313,83.02122 L 282.1313,83.02122 L 288.6313,83.02122 L 288.6313,76.52122 L 288.6313,70.02122 L 275.6313,70.02122 L 262.6313,70.02122 L 262.6313,63.52122 L 262.6313,57.02122 L 301.6313,57.02122 L 340.6313,57.02122 L 340.6313,70.02122 L 340.6313,83.02122 L 334.1313,83.02122 L 327.6313,83.02122 L 327.6313,76.52122 L 327.6313,70.02122 L 314.6313,70.02122 L 301.6313,70.02122 L 301.6313,76.52122 L 301.6313,83.02122 L 308.1313,83.02122 L 314.6313,83.02122 L 314.6313,89.52122 L 314.6313,96.02122 L 321.1313,96.02122 L 327.6313,96.02122 L 327.6313,102.52122 L 327.6313,109.02122 L 334.1313,109.02122 L 340.6313,109.02122 L 340.6313,115.52122 L 340.6313,122.02122 L 327.6313,122.02122 L 314.6313,122.02122 L 314.6313,109.02122 L 314.6313,96.02122 L 308.1313,96.02122 L 301.6313,96.02122 L 301.6313,102.52122 L 301.6313,109.02122 L 288.6313,109.02122 L 275.6313,109.02122 L 275.6313,115.52122 L 275.6313,122.02122 L 282.1313,122.02122 L 288.6313,122.02122 L 288.6313,135.02122 L 288.6313,148.02122 L 282.1313,148.02122 L 275.6313,148.02122 L 275.6313,161.02122 L 275.6313,174.02122 L 282.1313,174.02122 L 288.6313,174.02122 L 288.6313,167.52122 L 288.6313,161.02122 L 295.1313,161.02122 L 301.6313,161.02122 L 301.6313,148.02122 L 301.6313,135.02122 L 308.1313,135.02122 L 314.6313,135.02122 L 314.6313,148.02122 L 314.6313,161.02122 L 308.1313,161.02122 L 301.6313,161.02122 L 301.6313,167.52122 L 301.6313,174.02122 L 314.6313,174.02122 L 327.6313,174.02122 L 327.6313,180.52122 L 327.6313,187.02122 L 334.1313,187.02122 L 340.6313,187.02122 L 340.6313,174.02122 L 340.6313,161.02122 L 347.1313,161.02122 L 353.6313,161.02122 L 353.6313,167.52122 L 353.6313,174.02122 L 360.1313,174.02122 L 366.6313,174.02122 L 366.6313,167.52122 L 366.6313,161.02122 L 373.1313,161.02122 L 379.6313,161.02122 L 379.6313,167.52122 L 379.6313,174.02122 L 386.1313,174.02122 L 392.6313,174.02122 L 392.6313,167.52122 L 392.6313,161.02122 L 399.1313,161.02122 L 405.6313,161.02122 L 405.6313,167.52122 L 405.6313,174.02122 L 412.1313,174.02122 L 418.6313,174.02122 L 418.6313,167.52122 L 418.6313,161.02122 L 425.1313,161.02122 L 431.6313,161.02122 L 431.6313,167.52122 L 431.6313,174.02122 L 438.1313,174.02122 L 444.6313,174.02122 L 444.6313,180.52122 L 444.6313,187.02122 L 412.1313,187.02122 L 379.6313,187.02122 L 379.6313,193.52122 L 379.6313,200.02122 L 399.1313,200.02122 L 418.6313,200.02122 L 418.6313,206.52122 L 418.6313,213.02122 L 425.1313,213.02122 L 431.6313,213.02122 L 431.6313,219.52122 L 431.6313,226.02122 L 438.1313,226.02122 L 444.6313,226.02122 L 444.6313,232.52122 L 444.6313,239.02122 L 431.6313,239.02122 L 418.6313,239.02122 L 418.6313,245.52122 L 418.6313,252.02122 L 431.6313,252.02122 L 444.6313,252.02122 L 444.6313,271.52122 L 444.6313,291.02122 L 431.6313,291.02122 L 418.6313,291.02122 L 418.6313,284.52122 L 418.6313,278.02122 L 412.1313,278.02122 L 405.6313,278.02122 L 405.6313,265.02122 L 405.6313,252.02122 L 399.1313,252.02122 L 392.6313,252.02122 L 392.6313,258.52122 L 392.6313,265.02122 L 386.1313,265.02122 L 379.6313,265.02122 L 379.6313,258.52122 L 379.6313,252.02122 L 373.1313,252.02122 L 366.6313,252.02122 L 366.6313,245.52122 L 366.6313,239.02122 L 360.1313,239.02122 L 353.6313,239.02122 L 353.6313,232.52122 L 353.6313,226.02122 L 360.1313,226.02122 L 366.6313,226.02122 L 366.6313,219.52122 L 366.6313,213.02122 L 373.1313,213.02122 L 379.6313,213.02122 L 379.6313,206.52122 L 379.6313,200.02122 L 373.1313,200.02122 L 366.6313,200.02122 L 366.6313,193.52122 L 366.6313,187.02122 L 360.1313,187.02122 L 353.6313,187.02122 L 353.6313,200.02122 L 353.6313,213.02122 L 347.1313,213.02122 L 340.6313,213.02122 L 340.6313,232.52122 L 340.6313,252.02122 L 347.1313,252.02122 L 353.6313,252.02122 L 353.6313,258.52122 L 353.6313,265.02122 L 340.6313,265.02122 L 327.6313,265.02122 L 327.6313,271.52122 L 327.6313,278.02122 L 360.1313,278.02122 L 392.6313,278.02122 L 392.6313,284.52122 L 392.6313,291.02122 L 399.1313,291.02122 L 405.6313,291.02122 L 405.6313,297.52122 L 405.6313,304.02122 L 399.1313,304.02122 L 392.6313,304.02122 L 392.6313,330.02122 L 392.6313,356.02122 L 399.1313,356.02122 L 405.6313,356.02122 L 405.6313,362.52122 L 405.6313,369.02122 L 418.6313,369.02122 L 431.6313,369.02122 L 431.6313,375.52122 L 431.6313,382.02122 L 438.1313,382.02122 L 444.6313,382.02122 L 444.6313,388.52122 L 444.6313,395.02122 L 438.1313,395.02122 L 431.6313,395.02122 L 431.6313,408.02122 L 431.6313,421.02122 L 425.1313,421.02122 L 418.6313,421.02122 L 418.6313,427.52122 L 418.6313,434.02122 L 412.1313,434.02122 L 405.6313,434.02122 L 405.6313,427.52122 L 405.6313,421.02122 L 386.1313,421.02122 L 366.6313,421.02122 L 366.6313,414.52122 L 366.6313,408.02122 L 353.6313,408.02122 L 340.6313,408.02122 L 340.6313,414.52122 L 340.6313,421.02122 L 334.1313,421.02122 L 327.6313,421.02122 L 327.6313,427.52122 L 327.6313,434.02122 L 321.1313,434.02122 L 314.6313,434.02122 L 314.6313,427.52122 L 314.6313,421.02122 L 321.1313,421.02122 L 327.6313,421.02122 L 327.6313,414.52122 L 327.6313,408.02122 L 314.6313,408.02122 L 301.6313,408.02122 L 301.6313,395.02122 L 301.6313,382.02122 L 295.1313,382.02122 L 288.6313,382.02122 L 288.6313,388.52122 L 288.6313,395.02122 L 282.1313,395.02122 L 275.6313,395.02122 L 275.6313,401.52122 L 275.6313,408.02122 L 282.1313,408.02122 L 288.6313,408.02122 L 288.6313,414.52122 L 288.6313,421.02122 L 295.1313,421.02122 L 301.6313,421.02122 L 301.6313,427.52122 L 301.6313,434.02122 L 295.1313,434.02122 z M 412.1313,421.02122 L 418.6313,421.02122 L 418.6313,414.52122 L 418.6313,408.02122 L 412.1313,408.02122 L 405.6313,408.02122 L 405.6313,401.52122 L 405.6313,395.02122 L 412.1313,395.02122 L 418.6313,395.02122 L 418.6313,388.52122 L 418.6313,382.02122 L 412.1313,382.02122 L 405.6313,382.02122 L 405.6313,388.52122 L 405.6313,395.02122 L 399.1313,395.02122 L 392.6313,395.02122 L 392.6313,388.52122 L 392.6313,382.02122 L 386.1313,382.02122 L 379.6313,382.02122 L 379.6313,388.52122 L 379.6313,395.02122 L 386.1313,395.02122 L 392.6313,395.02122 L 392.6313,401.52122 L 392.6313,408.02122 L 399.1313,408.02122 L 405.6313,408.02122 L 405.6313,414.52122 L 405.6313,421.02122 L 412.1313,421.02122 z M 347.1313,395.02122 L 366.6313,395.02122 L 366.6313,388.52122 L 366.6313,382.02122 L 347.1313,382.02122 L 327.6313,382.02122 L 327.6313,375.52122 L 327.6313,369.02122 L 321.1313,369.02122 L 314.6313,369.02122 L 314.6313,362.52122 L 314.6313,356.02122 L 301.6313,356.02122 L 288.6313,356.02122 L 288.6313,349.52122 L 288.6313,343.02122 L 301.6313,343.02122 L 314.6313,343.02122 L 314.6313,336.52122 L 314.6313,330.02122 L 321.1313,330.02122 L 327.6313,330.02122 L 327.6313,323.52122 L 327.6313,317.02122 L 347.1313,317.02122 L 366.6313,317.02122 L 366.6313,310.52122 L 366.6313,304.02122 L 379.6313,304.02122 L 392.6313,304.02122 L 392.6313,297.52122 L 392.6313,291.02122 L 379.6313,291.02122 L 366.6313,291.02122 L 366.6313,297.52122 L 366.6313,304.02122 L 353.6313,304.02122 L 340.6313,304.02122 L 340.6313,297.52122 L 340.6313,291.02122 L 321.1313,291.02122 L 301.6313,291.02122 L 301.6313,284.52122 L 301.6313,278.02122 L 308.1313,278.02122 L 314.6313,278.02122 L 314.6313,271.52122 L 314.6313,265.02122 L 308.1313,265.02122 L 301.6313,265.02122 L 301.6313,258.52122 L 301.6313,252.02122 L 275.6313,252.02122 L 249.6313,252.02122 L 249.6313,258.52122 L 249.6313,265.02122 L 243.1313,265.02122 L 236.6313,265.02122 L 236.6313,271.52122 L 236.6313,278.02122 L 230.1313,278.02122 L 223.6313,278.02122 L 223.6313,265.02122 L 223.6313,252.02122 L 230.1313,252.02122 L 236.6313,252.02122 L 236.6313,245.52122 L 236.6313,239.02122 L 230.1313,239.02122 L 223.6313,239.02122 L 223.6313,232.52122 L 223.6313,226.02122 L 217.1313,226.02122 L 210.6313,226.02122 L 210.6313,219.52122 L 210.6313,213.02122 L 204.1313,213.02122 L 197.6313,213.02122 L 197.6313,219.52122 L 197.6313,226.02122 L 204.1313,226.02122 L 210.6313,226.02122 L 210.6313,232.52122 L 210.6313,239.02122 L 204.1313,239.02122 L 197.6313,239.02122 L 197.6313,252.02122 L 197.6313,265.02122 L 204.1313,265.02122 L 210.6313,265.02122 L 210.6313,278.02122 L 210.6313,291.02122 L 204.1313,291.02122 L 197.6313,291.02122 L 197.6313,284.52122 L 197.6313,278.02122 L 191.1313,278.02122 L 184.6313,278.02122 L 184.6313,252.02122 L 184.6313,226.02122 L 178.1313,226.02122 L 171.6313,226.02122 L 171.6313,219.52122 L 171.6313,213.02122 L 178.1313,213.02122 L 184.6313,213.02122 L 184.6313,193.52122 L 184.6313,174.02122 L 165.1313,174.02122 L 145.6313,174.02122 L 145.6313,180.52122 L 145.6313,187.02122 L 139.1313,187.02122 L 132.6313,187.02122 L 132.6313,180.52122 L 132.6313,174.02122 L 126.1313,174.02122 L 119.6313,174.02122 L 119.6313,180.52122 L 119.6313,187.02122 L 113.1313,187.02122 L 106.6313,187.02122 L 106.6313,180.52122 L 106.6313,174.02122 L 100.1313,174.02122 L 93.631298,174.02122 L 93.631298,180.52122 L 93.631298,187.02122 L 100.1313,187.02122 L 106.6313,187.02122 L 106.6313,193.52122 L 106.6313,200.02122 L 100.1313,200.02122 L 93.631298,200.02122 L 93.631298,206.52122 L 93.631298,213.02122 L 87.131298,213.02122 L 80.631298,213.02122 L 80.631298,226.02122 L 80.631298,239.02122 L 93.631298,239.02122 L 106.6313,239.02122 L 106.6313,232.52122 L 106.6313,226.02122 L 113.1313,226.02122 L 119.6313,226.02122 L 119.6313,245.52122 L 119.6313,265.02122 L 113.1313,265.02122 L 106.6313,265.02122 L 106.6313,258.52122 L 106.6313,252.02122 L 93.631298,252.02122 L 80.631298,252.02122 L 80.631298,258.52122 L 80.631298,265.02122 L 87.131298,265.02122 L 93.631298,265.02122 L 93.631298,271.52122 L 93.631298,278.02122 L 106.6313,278.02122 L 119.6313,278.02122 L 119.6313,271.52122 L 119.6313,265.02122 L 139.1313,265.02122 L 158.6313,265.02122 L 158.6313,271.52122 L 158.6313,278.02122 L 171.6313,278.02122 L 184.6313,278.02122 L 184.6313,284.52122 L 184.6313,291.02122 L 178.1313,291.02122 L 171.6313,291.02122 L 171.6313,297.52122 L 171.6313,304.02122 L 191.1313,304.02122 L 210.6313,304.02122 L 210.6313,297.52122 L 210.6313,291.02122 L 223.6313,291.02122 L 236.6313,291.02122 L 236.6313,297.52122 L 236.6313,304.02122 L 230.1313,304.02122 L 223.6313,304.02122 L 223.6313,317.02122 L 223.6313,330.02122 L 243.1313,330.02122 L 262.6313,330.02122 L 262.6313,336.52122 L 262.6313,343.02122 L 269.1313,343.02122 L 275.6313,343.02122 L 275.6313,349.52122 L 275.6313,356.02122 L 282.1313,356.02122 L 288.6313,356.02122 L 288.6313,362.52122 L 288.6313,369.02122 L 295.1313,369.02122 L 301.6313,369.02122 L 301.6313,375.52122 L 301.6313,382.02122 L 314.6313,382.02122 L 327.6313,382.02122 L 327.6313,388.52122 L 327.6313,395.02122 L 347.1313,395.02122 z M 282.1313,343.02122 L 275.6313,343.02122 L 275.6313,336.52122 L 275.6313,330.02122 L 269.1313,330.02122 L 262.6313,330.02122 L 262.6313,323.52122 L 262.6313,317.02122 L 256.1313,317.02122 L 249.6313,317.02122 L 249.6313,310.52122 L 249.6313,304.02122 L 256.1313,304.02122 L 262.6313,304.02122 L 262.6313,297.52122 L 262.6313,291.02122 L 269.1313,291.02122 L 275.6313,291.02122 L 275.6313,284.52122 L 275.6313,278.02122 L 262.6313,278.02122 L 249.6313,278.02122 L 249.6313,271.52122 L 249.6313,265.02122 L 275.6313,265.02122 L 301.6313,265.02122 L 301.6313,271.52122 L 301.6313,278.02122 L 295.1313,278.02122 L 288.6313,278.02122 L 288.6313,297.52122 L 288.6313,317.02122 L 295.1313,317.02122 L 301.6313,317.02122 L 301.6313,323.52122 L 301.6313,330.02122 L 295.1313,330.02122 L 288.6313,330.02122 L 288.6313,336.52122 L 288.6313,343.02122 L 282.1313,343.02122 z M 282.1313,330.02122 L 288.6313,330.02122 L 288.6313,323.52122 L 288.6313,317.02122 L 282.1313,317.02122 L 275.6313,317.02122 L 275.6313,323.52122 L 275.6313,330.02122 L 282.1313,330.02122 z M 152.1313,252.02122 L 145.6313,252.02122 L 145.6313,245.52122 L 145.6313,239.02122 L 152.1313,239.02122 L 158.6313,239.02122 L 158.6313,232.52122 L 158.6313,226.02122 L 145.6313,226.02122 L 132.6313,226.02122 L 132.6313,219.52122 L 132.6313,213.02122 L 126.1313,213.02122 L 119.6313,213.02122 L 119.6313,206.52122 L 119.6313,200.02122 L 132.6313,200.02122 L 145.6313,200.02122 L 145.6313,193.52122 L 145.6313,187.02122 L 158.6313,187.02122 L 171.6313,187.02122 L 171.6313,193.52122 L 171.6313,200.02122 L 158.6313,200.02122 L 145.6313,200.02122 L 145.6313,206.52122 L 145.6313,213.02122 L 152.1313,213.02122 L 158.6313,213.02122 L 158.6313,219.52122 L 158.6313,226.02122 L 165.1313,226.02122 L 171.6313,226.02122 L 171.6313,232.52122 L 171.6313,239.02122 L 165.1313,239.02122 L 158.6313,239.02122 L 158.6313,245.52122 L 158.6313,252.02122 L 152.1313,252.02122 z M 100.1313,226.02122 L 93.631298,226.02122 L 93.631298,219.52122 L 93.631298,213.02122 L 100.1313,213.02122 L 106.6313,213.02122 L 106.6313,219.52122 L 106.6313,226.02122 L 100.1313,226.02122 z M 256.1313,369.02122 L 262.6313,369.02122 L 262.6313,362.52122 L 262.6313,356.02122 L 256.1313,356.02122 L 249.6313,356.02122 L 249.6313,362.52122 L 249.6313,369.02122 L 256.1313,369.02122 z M 360.1313,369.02122 L 379.6313,369.02122 L 379.6313,349.52122 L 379.6313,330.02122 L 360.1313,330.02122 L 340.6313,330.02122 L 340.6313,349.52122 L 340.6313,369.02122 L 360.1313,369.02122 z M 360.1313,356.02122 L 353.6313,356.02122 L 353.6313,349.52122 L 353.6313,343.02122 L 360.1313,343.02122 L 366.6313,343.02122 L 366.6313,349.52122 L 366.6313,356.02122 L 360.1313,356.02122 z M 321.1313,252.02122 L 327.6313,252.02122 L 327.6313,245.52122 L 327.6313,239.02122 L 321.1313,239.02122 L 314.6313,239.02122 L 314.6313,245.52122 L 314.6313,252.02122 L 321.1313,252.02122 z M 405.6313,239.02122 L 418.6313,239.02122 L 418.6313,226.02122 L 418.6313,213.02122 L 399.1313,213.02122 L 379.6313,213.02122 L 379.6313,219.52122 L 379.6313,226.02122 L 386.1313,226.02122 L 392.6313,226.02122 L 392.6313,232.52122 L 392.6313,239.02122 L 405.6313,239.02122 z M 334.1313,213.02122 L 340.6313,213.02122 L 340.6313,206.52122 L 340.6313,200.02122 L 334.1313,200.02122 L 327.6313,200.02122 L 327.6313,206.52122 L 327.6313,213.02122 L 334.1313,213.02122 z M 373.1313,187.02122 L 379.6313,187.02122 L 379.6313,180.52122 L 379.6313,174.02122 L 373.1313,174.02122 L 366.6313,174.02122 L 366.6313,180.52122 L 366.6313,187.02122 L 373.1313,187.02122 z M 256.1313,161.02122 L 262.6313,161.02122 L 262.6313,154.52122 L 262.6313,148.02122 L 269.1313,148.02122 L 275.6313,148.02122 L 275.6313,141.52122 L 275.6313,135.02122 L 269.1313,135.02122 L 262.6313,135.02122 L 262.6313,141.52122 L 262.6313,148.02122 L 256.1313,148.02122 L 249.6313,148.02122 L 249.6313,141.52122 L 249.6313,135.02122 L 243.1313,135.02122 L 236.6313,135.02122 L 236.6313,141.52122 L 236.6313,148.02122 L 243.1313,148.02122 L 249.6313,148.02122 L 249.6313,154.52122 L 249.6313,161.02122 L 256.1313,161.02122 z M 204.1313,109.02122 L 210.6313,109.02122 L 210.6313,102.52122 L 210.6313,96.02122 L 204.1313,96.02122 L 197.6313,96.02122 L 197.6313,102.52122 L 197.6313,109.02122 L 204.1313,109.02122 z M 295.1313,96.02122 L 301.6313,96.02122 L 301.6313,89.52122 L 301.6313,83.02122 L 295.1313,83.02122 L 288.6313,83.02122 L 288.6313,89.52122 L 288.6313,96.02122 L 295.1313,96.02122 z M 425.1313,343.02122 L 418.6313,343.02122 L 418.6313,336.52122 L 418.6313,330.02122 L 412.1313,330.02122 L 405.6313,330.02122 L 405.6313,323.52122 L 405.6313,317.02122 L 412.1313,317.02122 L 418.6313,317.02122 L 418.6313,323.52122 L 418.6313,330.02122 L 425.1313,330.02122 L 431.6313,330.02122 L 431.6313,317.02122 L 431.6313,304.02122 L 438.1313,304.02122 L 444.6313,304.02122 L 444.6313,317.02122 L 444.6313,330.02122 L 438.1313,330.02122 L 431.6313,330.02122 L 431.6313,336.52122 L 431.6313,343.02122 L 425.1313,343.02122 z M 100.1313,330.02122 L 93.631298,330.02122 L 93.631298,323.52122 L 93.631298,317.02122 L 100.1313,317.02122 L 106.6313,317.02122 L 106.6313,323.52122 L 106.6313,330.02122 L 100.1313,330.02122 z M 295.1313,226.02122 L 288.6313,226.02122 L 288.6313,219.52122 L 288.6313,213.02122 L 282.1313,213.02122 L 275.6313,213.02122 L 275.6313,206.52122 L 275.6313,200.02122 L 282.1313,200.02122 L 288.6313,200.02122 L 288.6313,206.52122 L 288.6313,213.02122 L 295.1313,213.02122 L 301.6313,213.02122 L 301.6313,219.52122 L 301.6313,226.02122 L 295.1313,226.02122 z M 256.1313,213.02122 L 249.6313,213.02122 L 249.6313,206.52122 L 249.6313,200.02122 L 256.1313,200.02122 L 262.6313,200.02122 L 262.6313,206.52122 L 262.6313,213.02122 L 256.1313,213.02122 z M 113.1313,148.02122 L 67.631298,148.02122 L 67.631298,102.52122 L 67.631298,57.02122 L 113.1313,57.02122 L 158.6313,57.02122 L 158.6313,102.52122 L 158.6313,148.02122 L 113.1313,148.02122 z M 113.1313,135.02122 L 145.6313,135.02122 L 145.6313,102.52122 L 145.6313,70.02122 L 113.1313,70.02122 L 80.631298,70.02122 L 80.631298,102.52122 L 80.631298,135.02122 L 113.1313,135.02122 z M 113.1313,122.02122 L 93.631298,122.02122 L 93.631298,102.52122 L 93.631298,83.02122 L 113.1313,83.02122 L 132.6313,83.02122 L 132.6313,102.52122 L 132.6313,122.02122 L 113.1313,122.02122 z M 178.1313,148.02122 L 171.6313,148.02122 L 171.6313,135.02122 L 171.6313,122.02122 L 178.1313,122.02122 L 184.6313,122.02122 L 184.6313,135.02122 L 184.6313,148.02122 L 178.1313,148.02122 z M 334.1313,148.02122 L 327.6313,148.02122 L 327.6313,141.52122 L 327.6313,135.02122 L 334.1313,135.02122 L 340.6313,135.02122 L 340.6313,141.52122 L 340.6313,148.02122 L 334.1313,148.02122 z M 399.1313,148.02122 L 353.6313,148.02122 L 353.6313,102.52122 L 353.6313,57.02122 L 399.1313,57.02122 L 444.6313,57.02122 L 444.6313,102.52122 L 444.6313,148.02122 L 399.1313,148.02122 z M 399.1313,135.02122 L 431.6313,135.02122 L 431.6313,102.52122 L 431.6313,70.02122 L 399.1313,70.02122 L 366.6313,70.02122 L 366.6313,102.52122 L 366.6313,135.02122 L 399.1313,135.02122 z M 399.1313,122.02122 L 379.6313,122.02122 L 379.6313,102.52122 L 379.6313,83.02122 L 399.1313,83.02122 L 418.6313,83.02122 L 418.6313,102.52122 L 418.6313,122.02122 L 399.1313,122.02122 z M 256.1313,96.02122 L 249.6313,96.02122 L 249.6313,89.52122 L 249.6313,83.02122 L 256.1313,83.02122 L 262.6313,83.02122 L 262.6313,89.52122 L 262.6313,96.02122 L 256.1313,96.02122 z "
     id="path2282" />
</svg>
