<?xml version="1.0" encoding="utf-8"?>
<!-- Generator: Adobe Illustrator 22.1.0, SVG Export Plug-In . SVG Version: 6.00 Build 0)  -->
<svg version="1.1" id="Capa_1" xmlns="http://www.w3.org/2000/svg" xmlns:xlink="http://www.w3.org/1999/xlink" x="0px" y="0px"
	 viewBox="0 0 405.5 405.5" style="enable-background:new 0 0 405.5 405.5;" xml:space="preserve">
<style type="text/css">
	.st0{fill:#222222;}
</style>
<g>
	<path class="st0" d="M64.1,331.3c0.1,5,2.2,9.9,5.7,13.4l55,55c3.6,3.6,8.7,5.7,13.7,5.7s10.2-2.1,13.8-5.7l183.3-183.3
		c3.6-3.6,5.7-8.7,5.7-13.8s-2.1-10.2-5.7-13.8L152.3,5.7c-3.6-3.6-8.7-5.7-13.8-5.7s-10.2,2.1-13.8,5.7l-55,55
		c-3.6,3.6-5.7,8.7-5.7,13.7s2.1,10.1,5.7,13.7l114.6,114.6L69.8,317.3C66.2,321,64.1,326.1,64.1,331.3L64.1,331.3z"/>
</g>
</svg>
