<?xml version="1.0" encoding="utf-8"?>
<!-- Generator: Adobe Illustrator 22.1.0, SVG Export Plug-In . SVG Version: 6.00 Build 0)  -->
<svg version="1.1" id="Capa_1" xmlns="http://www.w3.org/2000/svg" xmlns:xlink="http://www.w3.org/1999/xlink" x="0px" y="0px"
	 viewBox="0 0 487.1 487.1" style="enable-background:new 0 0 487.1 487.1;" xml:space="preserve">
<style type="text/css">
	.st0{fill:#FFC40F;}
</style>
<g>
	<g>
		<path class="st0" d="M342.3,138H385L321.7,29.4c-5.1-8.8-16.4-11.8-25.2-6.6c-8.8,5.1-11.8,16.4-6.6,25.2L342.3,138z"/>
		<path class="st0" d="M197.4,48c5.1-8.8,2.2-20.1-6.6-25.2s-20.1-2.2-25.2,6.6l-63.3,108.7H145L197.4,48z"/>
		<path class="st0" d="M455.7,171.3H31.3C14,171.3,0,185.3,0,202.6v34.7c0,17.3,14,31.3,31.3,31.3h9.8l30.2,163.7
			c3.8,19.3,21.4,34.6,39.7,34.6h12h78.8c8,0,18.4,0,29,0l0,0h9.6h9.6l0,0c10.6,0,21,0,29,0h78.8h12c18.3,0,35.9-15.3,39.7-34.6
			l30.4-163.8h15.9c17.3,0,31.3-14,31.3-31.3v-34.7C487,185.3,473,171.3,455.7,171.3z M172.8,334.9v70.6c0,10.1-8.2,17.7-17.7,17.7
			c-10.1,0-17.7-8.2-17.7-17.7v-29.6v-69.4c0-10.1,8.2-17.7,17.7-17.7c10.1,0,17.7,8.2,17.7,17.7V334.9z M229.6,334.9v70.6
			c0,10.1-8.2,17.7-17.7,17.7c-10.1,0-17.7-8.2-17.7-17.7v-29.6v-69.4c0-10.1,8.2-17.7,17.7-17.7s17.7,8.2,17.7,17.7V334.9z
			 M286.7,375.9v29.6c0,9.5-7.6,17.7-17.7,17.7c-9.5,0-17.7-7.6-17.7-17.7v-70.6v-28.4c0-9.5,8.2-17.7,17.7-17.7s17.7,7.6,17.7,17.7
			V375.9z M343.5,375.9v29.6c0,9.5-7.6,17.7-17.7,17.7c-9.5,0-17.7-7.6-17.7-17.7v-70.6v-28.4c0-9.5,7.6-17.7,17.7-17.7
			c9.5,0,17.7,7.6,17.7,17.7V375.9z"/>
	</g>
</g>
</svg>
