<?xml version="1.0" encoding="iso-8859-1"?>
<!-- Generator: Adobe Illustrator 19.0.0, SVG Export Plug-In . SVG Version: 6.00 Build 0)  -->
<svg version="1.1" id="Layer_1" xmlns="http://www.w3.org/2000/svg" xmlns:xlink="http://www.w3.org/1999/xlink" x="0px" y="0px"
	 viewBox="0 0 512 512" style="enable-background:new 0 0 512 512;" xml:space="preserve">
<g>
	<g>
		<path d="M501.551,235.102h-41.796v-41.719c0-28.851-23.474-52.321-52.329-52.321H52.329c-11.802,0-22.667,3.969-31.431,10.578
			V99.23c0-17.265,14.1-31.311,31.431-31.311h355.097c17.332,0,31.431,14.085,31.431,31.398v16.158
			c0,5.77,4.679,10.449,10.449,10.449s10.449-4.679,10.449-10.449V99.316c0-28.835-23.474-52.296-52.329-52.296H52.329
			C23.474,47.02,0,70.441,0,99.23v94.097v19.972v199.417c0,28.819,23.474,52.264,52.329,52.264h355.097
			c28.855,0,52.329-23.417,52.329-52.202v-73.186h41.796c5.77,0,10.449-4.679,10.449-10.449v-83.592
			C512,239.781,507.321,235.102,501.551,235.102z M438.857,412.778c0,17.261-14.1,31.304-31.431,31.304H52.329
			c-17.331,0-31.431-14.07-31.431-31.366V213.298v-19.972c0-17.296,14.1-31.367,31.431-31.367h355.097
			c17.332,0,31.431,14.097,31.431,31.424v41.719h-83.592c-5.77,0-10.449,4.679-10.449,10.449v83.592
			c0,5.77,4.679,10.449,10.449,10.449h83.592V412.778z M491.102,318.694H365.714V256h125.388V318.694z"/>
	</g>
</g>
<g>
	<g>
		<rect x="62.694" y="88.816" width="344.973" height="20.898"/>
	</g>
</g>
<g>
</g>
<g>
</g>
<g>
</g>
<g>
</g>
<g>
</g>
<g>
</g>
<g>
</g>
<g>
</g>
<g>
</g>
<g>
</g>
<g>
</g>
<g>
</g>
<g>
</g>
<g>
</g>
<g>
</g>
</svg>
